<svg width="24" height="24" xmlns="http://www.w3.org/2000/svg"><g fill="#0061FF" fill-rule="evenodd"><path d="M24 5.326c0-.827-.68-1.498-1.496-1.498H12l-3-3H1.506C.674.828 0 1.502 0 2.322v20.01c0 .55.447.996 1 .996h22c.552 0 1-.444 1-.994V5.326zm-4.5 15.002v3h-15v-3H3v-13.5h18v13.5h-1.5z" fill-rule="nonzero"/><path d="M12.492 23.328H6.548c-.558 0-.82-.408-.588-.91l.715-1.55c.52-1.13 1.952-2.04 3.2-2.04h4.251c1.247 0 2.678.91 3.199 2.04l.715 1.55c.232.502-.03.91-.588.91h-4.96zm-.492-6a3 3 0 1 1 0-6 3 3 0 0 1 0 6z"/></g></svg>