<svg width="48" height="61" xmlns="http://www.w3.org/2000/svg" xmlns:xlink="http://www.w3.org/1999/xlink"><defs><rect id="b" x="16" y="10" width="48" height="60" rx="1.5"/><filter x="-1%" y="-.8%" width="102.1%" height="103.3%" filterUnits="objectBoundingBox" id="a"><feOffset dy="1" in="SourceAlpha" result="shadowOffsetOuter1"/><feColorMatrix values="0 0 0 0 0.858859196 0 0 0 0 0.871765907 0 0 0 0 0.884672619 0 0 0 1 0" in="shadowOffsetOuter1"/></filter></defs><g fill="none" fill-rule="evenodd"><g transform="translate(-16 -10)"><use fill="#000" filter="url(#a)" xlink:href="#b"/><use fill="#F7F9FA" xlink:href="#b"/></g><path d="M10 20.49c0-.27.225-.49.51-.49h26.98c.282 0 .51.215.51.49v3.02c0 .27-.225.49-.51.49H10.51a.498.498 0 0 1-.51-.49v-3.02zm0 8c0-.27.225-.49.51-.49h26.98c.282 0 .51.215.51.49v3.02c0 .27-.225.49-.51.49H10.51a.498.498 0 0 1-.51-.49v-3.02zm0 8c0-.27.225-.49.494-.49h19.012a.49.49 0 0 1 .494.49v3.02c0 .27-.225.49-.494.49H10.494a.49.49 0 0 1-.494-.49v-3.02z" fill="#3BA0F3"/></g></svg>
