<svg width="60" height="50" xmlns="http://www.w3.org/2000/svg"><g fill="none" fill-rule="evenodd"><path d="M26.844 8h31.658C59.326 8 60 8.67 60 9.495v39.01c0 .818-.67 1.495-1.498 1.495H1.498C.674 50 0 49.33 0 48.505V3.51A1.5 1.5 0 0 1 1.5 2h18.13c.545 0 1.218.39 1.494.872l2.52 4.411s.8.717 3.2.717z" fill="#71B9F4"/><path d="M26.844 6h31.658C59.326 6 60 6.67 60 7.495v39.01c0 .818-.67 1.495-1.498 1.495H1.498C.674 48 0 47.33 0 46.505V1.51A1.5 1.5 0 0 1 1.5 0h18.13c.545 0 1.218.39 1.494.872l2.52 4.411s.8.717 3.2.717z" fill="#92CEFF"/><path d="M36.04 26.246L42 30.354l-6.002 4.138L30 30.357l-5.998 4.135L18 30.354l5.96-4.108L18 22.137 24.002 18 30 22.134 35.998 18 42 22.137l-5.96 4.109zm-.084 0L30 22.14l-5.956 4.106L30 30.35l5.956-4.105zM24.04 35.863l6.002-4.137 6.002 4.137L30.043 40l-6.002-4.137z" fill="#3BA0F3"/></g></svg>
