<svg width="28" height="27" xmlns="http://www.w3.org/2000/svg" xmlns:xlink="http://www.w3.org/1999/xlink"><defs><path d="M0 12C0 5.373 5.371 0 12 0c6.627 0 12 5.371 12 12 0 6.627-5.371 12-12 12-6.627 0-12-5.371-12-12zm6 0c0 3.307 2.686 6 6 6 3.307 0 6-2.686 6-6 0-3.307-2.686-6-6-6-3.307 0-6 2.686-6 6z" id="a"/></defs><g fill="none" fill-rule="evenodd"><g transform="translate(2 1.828)"><mask id="b" fill="#fff"><use xlink:href="#a"/></mask><path fill="#0061FF" mask="url(#b)" d="M0-1.5h12V12H0zM12 12h12v13.5H12z"/></g><path d="M3.125 13.828c0 5.998 4.874 10.875 10.875 10.875 5.997 0 10.875-4.874 10.875-10.875 0-5.997-4.874-10.875-10.875-10.875-5.997 0-10.875 4.874-10.875 10.875zm-2.25 0C.875 6.584 6.76.703 14 .703c7.244 0 13.125 5.885 13.125 13.125 0 7.244-5.885 13.125-13.125 13.125-7.244 0-13.125-5.885-13.125-13.125zm6 0A7.13 7.13 0 0 1 14 6.703a7.13 7.13 0 0 1 7.125 7.125A7.13 7.13 0 0 1 14 20.953a7.13 7.13 0 0 1-7.125-7.125zm2.25 0A4.88 4.88 0 0 0 14 18.703a4.88 4.88 0 0 0 4.875-4.875A4.88 4.88 0 0 0 14 8.953a4.88 4.88 0 0 0-4.875 4.875z" fill="#0061FF" fill-rule="nonzero"/></g></svg>