<svg width="60" height="50" xmlns="http://www.w3.org/2000/svg"><g fill="none" fill-rule="evenodd"><path d="M26.844 8h31.658C59.326 8 60 8.67 60 9.495v39.01c0 .818-.67 1.495-1.498 1.495H1.498C.674 50 0 49.33 0 48.505V3.51A1.5 1.5 0 0 1 1.5 2h18.13c.545 0 1.218.39 1.494.872l2.52 4.411s.8.717 3.2.717z" fill="#71B9F4"/><path d="M26.844 6h31.658C59.326 6 60 6.67 60 7.495v39.01c0 .818-.67 1.495-1.498 1.495H1.498C.674 48 0 47.33 0 46.505V1.51A1.5 1.5 0 0 1 1.5 0h18.13c.545 0 1.218.39 1.494.872l2.52 4.411s.8.717 3.2.717z" fill="#92CEFF"/><g fill="#3BA0F3"><path d="M48 14.2h7v4.2h-7z"/><path d="M51.378 10c1.221 0 2.211 1.003 2.211 2.24v3.36h-4.422v-3.36c0-1.237.99-2.24 2.21-2.24zm.811 2.24a.826.826 0 0 0-.811-.84.826.826 0 0 0-.811.84v1.96h1.622v-1.96z" fill-rule="nonzero"/></g><path d="M29.526 33.898l.755-1.962c.598-1.554 2.422-2.813 4.092-2.813h1.38c1.663 0 3.496 1.26 4.093 2.813l.87 2.26c.199.52-.096.94-.644.94H18.98c-.555 0-.846-.413-.643-.94l.87-2.26c.597-1.554 2.421-2.813 4.091-2.813h1.38c1.663 0 3.496 1.26 4.093 2.813l.754 1.962zm-5.341-7.816a3.04 3.04 0 1 1 0-6.082 3.04 3.04 0 0 1 0 6.082zm10.643 0a3.04 3.04 0 1 1 0-6.082 3.04 3.04 0 0 1 0 6.082z" fill="#3BA0F3"/></g></svg>
