<svg width="26" height="22" xmlns="http://www.w3.org/2000/svg"><path d="M8.12 21.149c9.553 0 14.778-7.915 14.778-14.779 0-.225-.005-.449-.015-.671a10.567 10.567 0 0 0 2.591-2.69c-.93.414-1.932.692-2.983.818A5.211 5.211 0 0 0 24.775.954a10.41 10.41 0 0 1-3.298 1.26 5.195 5.195 0 0 0-8.852 4.737A14.747 14.747 0 0 1 1.92 1.525a5.176 5.176 0 0 0-.703 2.61A5.19 5.19 0 0 0 3.527 8.46a5.156 5.156 0 0 1-2.352-.65l-.001.066a5.196 5.196 0 0 0 4.167 5.093 5.209 5.209 0 0 1-2.346.089 5.2 5.2 0 0 0 4.852 3.607 10.423 10.423 0 0 1-6.45 2.224c-.42 0-.833-.024-1.24-.072a14.705 14.705 0 0 0 7.962 2.333" fill="#0061FF" fill-rule="evenodd"/></svg>